<?plantuml 1.2026.0?><svg xmlns="http://www.w3.org/2000/svg" xmlns:xlink="http://www.w3.org/1999/xlink" contentStyleType="text/css" data-diagram-type="SEQUENCE" height="457.2917px" preserveAspectRatio="none" style="width:892px;height:457px;" version="1.1" viewBox="0 0 892 457" width="892.7083px" zoomAndPan="magnify"><defs/><g><g><title>Nginx Gateway</title><rect fill="#807E77" height="201.9228" style="stroke:#2D547A;stroke-width:1.0417;" width="10.4167" x="388.4603" y="141.987"/></g><g><title>FastAPI Backend</title><rect fill="#807E77" height="121.1537" style="stroke:#2D547A;stroke-width:1.0417;" width="10.4167" x="675.238" y="182.3716"/></g><g><title>DuckDB</title><rect fill="#807E77" height="40.3846" style="stroke:#2D547A;stroke-width:1.0417;" width="10.4167" x="846.6317" y="222.7561"/></g><g class="participant-lifeline" data-entity-uid="part1" data-qualified-name="script" id="part1-lifeline"><g><title>External Script</title><rect fill="#000000" fill-opacity="0.00000" height="278.5252" width="8.3333" x="123.3171" y="84.1346"/><line style="stroke:#8E8C84;stroke-width:1.0417;stroke-dasharray:5.2083,5.2083;" x1="127.0833" x2="127.0833" y1="84.1346" y2="362.6598"/></g></g><g class="participant-lifeline" data-entity-uid="part2" data-qualified-name="nginx" id="part2-lifeline"><g><title>Nginx Gateway</title><rect fill="#000000" fill-opacity="0.00000" height="278.5252" width="8.3333" x="389.5019" y="84.1346"/><line style="stroke:#8E8C84;stroke-width:1.0417;stroke-dasharray:5.2083,5.2083;" x1="392.6271" x2="392.6271" y1="84.1346" y2="362.6598"/></g></g><g class="participant-lifeline" data-entity-uid="part3" data-qualified-name="api" id="part3-lifeline"><g><title>FastAPI Backend</title><rect fill="#000000" fill-opacity="0.00000" height="278.5252" width="8.3333" x="676.2797" y="84.1346"/><line style="stroke:#8E8C84;stroke-width:1.0417;stroke-dasharray:5.2083,5.2083;" x1="680.046" x2="680.046" y1="84.1346" y2="362.6598"/></g></g><g class="participant-lifeline" data-entity-uid="part4" data-qualified-name="db" id="part4-lifeline"><g><title>DuckDB</title><rect fill="#000000" fill-opacity="0.00000" height="278.5252" width="8.3333" x="847.6733" y="84.1346"/><line style="stroke:#8E8C84;stroke-width:1.0417;stroke-dasharray:5.2083,5.2083;" x1="851.6798" x2="851.6798" y1="84.1346" y2="362.6598"/></g></g><g class="participant participant-head" data-entity-uid="part1" data-qualified-name="script" id="part1-head"><rect fill="#325D88" height="40.3846" rx="4.1667" ry="4.1667" style="stroke:#2D547A;stroke-width:1.0417;" width="140.3841" x="57.2917" y="42.7083"/><text fill="#FFFFFF" font-family="'Verdana'" font-size="12.5" lengthAdjust="spacing" textLength="115.3841" x="69.7917" y="66.7467">External Script</text></g><g class="participant participant-tail" data-entity-uid="part1" data-qualified-name="script" id="part1-tail"><rect fill="#325D88" height="40.3846" rx="4.1667" ry="4.1667" style="stroke:#2D547A;stroke-width:1.0417;" width="140.3841" x="57.2917" y="361.6181"/><text fill="#FFFFFF" font-family="'Verdana'" font-size="12.5" lengthAdjust="spacing" textLength="115.3841" x="69.7917" y="385.6565">External Script</text></g><g class="participant participant-head" data-entity-uid="part2" data-qualified-name="nginx" id="part2-head"><rect fill="#325D88" height="40.3846" rx="4.1667" ry="4.1667" style="stroke:#2D547A;stroke-width:1.0417;" width="124.9996" x="331.1688" y="42.7083"/><text fill="#FFFFFF" font-family="'Verdana'" font-size="12.5" lengthAdjust="spacing" textLength="99.9996" x="343.6688" y="66.7467">Nginx Gateway</text></g><g class="participant participant-tail" data-entity-uid="part2" data-qualified-name="nginx" id="part2-tail"><rect fill="#325D88" height="40.3846" rx="4.1667" ry="4.1667" style="stroke:#2D547A;stroke-width:1.0417;" width="124.9996" x="331.1688" y="361.6181"/><text fill="#FFFFFF" font-family="'Verdana'" font-size="12.5" lengthAdjust="spacing" textLength="99.9996" x="343.6688" y="385.6565">Nginx Gateway</text></g><g class="participant participant-head" data-entity-uid="part3" data-qualified-name="api" id="part3-head"><rect fill="#325D88" height="40.3846" rx="4.1667" ry="4.1667" style="stroke:#2D547A;stroke-width:1.0417;" width="140.3841" x="610.2543" y="42.7083"/><text fill="#FFFFFF" font-family="'Verdana'" font-size="12.5" lengthAdjust="spacing" textLength="115.3841" x="622.7543" y="66.7467">FastAPI Backend</text></g><g class="participant participant-tail" data-entity-uid="part3" data-qualified-name="api" id="part3-tail"><rect fill="#325D88" height="40.3846" rx="4.1667" ry="4.1667" style="stroke:#2D547A;stroke-width:1.0417;" width="140.3841" x="610.2543" y="361.6181"/><text fill="#FFFFFF" font-family="'Verdana'" font-size="12.5" lengthAdjust="spacing" textLength="115.3841" x="622.7543" y="385.6565">FastAPI Backend</text></g><g class="participant participant-head" data-entity-uid="part4" data-qualified-name="db" id="part4-head"><text fill="#FFFFFF" font-family="'Verdana'" font-size="12.5" lengthAdjust="spacing" textLength="46.1536" x="825.6382" y="75.0801">DuckDB</text><path d="M833.09,20.8333 C833.09,10.4167 851.84,10.4167 851.84,10.4167 C851.84,10.4167 870.59,10.4167 870.59,20.8333 L870.59,47.9167 C870.59,58.3333 851.84,58.3333 851.84,58.3333 C851.84,58.3333 833.09,58.3333 833.09,47.9167 L833.09,20.8333" fill="#325D88" style="stroke:#2D547A;stroke-width:1.0417;"/><path d="M833.09,20.8333 C833.09,31.25 851.84,31.25 851.84,31.25 C851.84,31.25 870.59,31.25 870.59,20.8333" fill="none" style="stroke:#2D547A;stroke-width:1.0417;"/></g><g class="participant participant-tail" data-entity-uid="part4" data-qualified-name="db" id="part4-tail"><text fill="#FFFFFF" font-family="'Verdana'" font-size="12.5" lengthAdjust="spacing" textLength="46.1536" x="825.6382" y="378.3649">DuckDB</text><path d="M833.09,397.836 C833.09,387.4193 851.84,387.4193 851.84,387.4193 C851.84,387.4193 870.59,387.4193 870.59,397.836 L870.59,424.9193 C870.59,435.336 851.84,435.336 851.84,435.336 C851.84,435.336 833.09,435.336 833.09,424.9193 L833.09,397.836" fill="#325D88" style="stroke:#2D547A;stroke-width:1.0417;"/><path d="M833.09,397.836 C833.09,408.2527 851.84,408.2527 851.84,408.2527 C851.84,408.2527 870.59,408.2527 870.59,397.836" fill="none" style="stroke:#2D547A;stroke-width:1.0417;"/></g><g><title>Nginx Gateway</title><rect fill="#807E77" height="201.9228" style="stroke:#2D547A;stroke-width:1.0417;" width="10.4167" x="388.4603" y="141.987"/></g><g><title>FastAPI Backend</title><rect fill="#807E77" height="121.1537" style="stroke:#2D547A;stroke-width:1.0417;" width="10.4167" x="675.238" y="182.3716"/></g><g><title>DuckDB</title><rect fill="#807E77" height="40.3846" style="stroke:#2D547A;stroke-width:1.0417;" width="10.4167" x="846.6317" y="222.7561"/></g><g class="message" data-entity-1="part1" data-entity-2="part2" id="msg1"><polygon fill="#325D88" points="375.9603,137.8203,386.3769,141.987,375.9603,146.1537,380.1269,141.987" style="stroke:#325D88;stroke-width:1.0417;"/><line style="stroke:#325D88;stroke-width:3.125;" x1="127.4837" x2="382.2103" y1="141.987" y2="141.987"/><text fill="#FFFFFF" font-family="'Verdana'" font-size="12.5" lengthAdjust="spacing" textLength="230.7682" x="139.9837" y="115.4646">POST /api/v1/analyze/abs_churn</text><text fill="#FFFFFF" font-family="'Verdana'" font-size="12.5" lengthAdjust="spacing" textLength="107.6918" x="139.9837" y="130.8492">{json_payload}</text></g><g class="message" data-entity-1="part2" data-entity-2="part3" id="msg2"><polygon fill="#325D88" points="662.738,178.2049,673.1547,182.3716,662.738,186.5382,666.9047,182.3716" style="stroke:#325D88;stroke-width:1.0417;"/><line style="stroke:#325D88;stroke-width:3.125;" x1="398.8769" x2="668.988" y1="182.3716" y2="182.3716"/><text fill="#FFFFFF" font-family="'Verdana'" font-size="12.5" lengthAdjust="spacing" textLength="246.1528" x="411.3769" y="171.2337">Forward to /v1/analyze/abs_churn</text></g><g class="message" data-entity-1="part3" data-entity-2="part4" id="msg3"><polygon fill="#325D88" points="834.1317,218.5894,844.5483,222.7561,834.1317,226.9228,838.2983,222.7561" style="stroke:#325D88;stroke-width:1.0417;"/><line style="stroke:#325D88;stroke-width:3.125;" x1="685.6547" x2="840.3817" y1="222.7561" y2="222.7561"/><text fill="#FFFFFF" font-family="'Verdana'" font-size="12.5" lengthAdjust="spacing" textLength="130.7686" x="698.1547" y="211.6183">Execute SQL Query</text></g><g class="message" data-entity-1="part4" data-entity-2="part3" id="msg4"><polygon fill="#325D88" points="697.113,258.974,686.6963,263.1407,697.113,267.3073,692.9463,263.1407" style="stroke:#325D88;stroke-width:1.0417;"/><line style="stroke:#325D88;stroke-width:3.125;stroke-dasharray:2.0833,2.0833;" x1="690.863" x2="850.7983" y1="263.1407" y2="263.1407"/><text fill="#FFFFFF" font-family="'Verdana'" font-size="12.5" lengthAdjust="spacing" textLength="76.9227" x="708.5713" y="252.0029">Result Set</text></g><g class="message" data-entity-1="part3" data-entity-2="part2" id="msg5"><polygon fill="#325D88" points="410.3353,299.3586,399.9186,303.5252,410.3353,307.6919,406.1686,303.5252" style="stroke:#325D88;stroke-width:1.0417;"/><line style="stroke:#325D88;stroke-width:3.125;stroke-dasharray:2.0833,2.0833;" x1="404.0853" x2="679.4047" y1="303.5252" y2="303.5252"/><text fill="#FFFFFF" font-family="'Verdana'" font-size="12.5" lengthAdjust="spacing" textLength="169.23" x="421.7936" y="292.3874">JSON Response (200 OK)</text></g><g class="message" data-entity-1="part2" data-entity-2="part1" id="msg6"><polygon fill="#325D88" points="138.9421,339.7431,128.5254,343.9098,138.9421,348.0764,134.7754,343.9098" style="stroke:#325D88;stroke-width:1.0417;"/><line style="stroke:#325D88;stroke-width:3.125;stroke-dasharray:2.0833,2.0833;" x1="132.6921" x2="392.6269" y1="343.9098" y2="343.9098"/><text fill="#FFFFFF" font-family="'Verdana'" font-size="12.5" lengthAdjust="spacing" textLength="99.9996" x="150.4004" y="332.772">JSON Response</text></g><?plantuml-src RP3BJiCm44Nt_eeXArXKAInP856rHJpKj8GbKZMnHpGqE9OzQHiG_yxa8PeYTfRdd3lNFkCDVH04j2PmQKavz9phtA5bY6O79c-nW5Jxt744622qnrDkyPRR0zmXqnxhbhBDpIaqny2totkOeDwIDIs6BbS66JCC1D6qqjlff1sOJAbk4unkkZIuXcMIla0iKhoxZ56ArPyKOnRMUbDv-sg_taDfrmxheaJphL1plfDIVHlLnKYU94ZQlFHxz0QuX7_pZdvJKpMIk2OJTNOWNSaWNJt1gY9V7rbfBiZeTyipXQfWI8cLeI7L1GvUzv0cYmPtfPNVEByQZo5vl1XQRO_-5IBs7_J770ej-mC0?></g></svg>