<?plantuml 1.2026.0?><svg xmlns="http://www.w3.org/2000/svg" xmlns:xlink="http://www.w3.org/1999/xlink" contentStyleType="text/css" data-diagram-type="DESCRIPTION" height="740.625px" preserveAspectRatio="none" style="width:614px;height:740px;background:#FFFFFF;" version="1.1" viewBox="0 0 614 740" width="614.5833px" zoomAndPan="magnify"><defs/><g><!--cluster External Network--><g class="cluster" data-qualified-name="External Network" data-source-line="5" id="ent0002"><path d="M60.4167,16.6667 L191.8264,16.6667 A6.25,6.25 0 0 1 195.993,20.8333 L203.2847,48.7179 L473.9583,48.7179 A4.1667,4.1667 0 0 1 478.125,52.8846 L478.125,131.25 A4.1667,4.1667 0 0 1 473.9583,135.4167 L60.4167,135.4167 A4.1667,4.1667 0 0 1 56.25,131.25 L56.25,20.8333 A4.1667,4.1667 0 0 1 60.4167,16.6667" fill="#8E8C84" style="stroke:#325D88;stroke-width:2.0833;"/><line style="stroke:#325D88;stroke-width:2.0833;" x1="56.25" x2="203.2847" y1="48.7179" y2="48.7179"/><text fill="#325D88" font-family="'Verdana'" font-size="12.5" font-weight="bold" lengthAdjust="spacing" textLength="123.0764" x="65.625" y="35.4967">External Network</text></g><!--cluster Pulseflow Container Stack--><g class="cluster" data-qualified-name="Pulseflow Container Stack" data-source-line="10" id="ent0005"><polygon fill="#8E8C84" points="27.0833,206.25,37.5,195.8333,378.125,195.8333,378.125,707.2917,367.7083,717.7083,27.0833,717.7083,27.0833,206.25" style="stroke:#325D88;stroke-width:1.0417;"/><line style="stroke:#325D88;stroke-width:1.0417;" x1="367.7083" x2="378.125" y1="206.25" y2="195.8333"/><line style="stroke:#325D88;stroke-width:1.0417;" x1="27.0833" x2="367.7083" y1="206.25" y2="206.25"/><line style="stroke:#325D88;stroke-width:1.0417;" x1="367.7083" x2="367.7083" y1="206.25" y2="717.7083"/><text fill="#F8F5F0" font-family="'Verdana'" font-size="12.5" font-weight="bold" lengthAdjust="spacing" textLength="192.3068" x="102.2841" y="226.1217">Pulseflow Container Stack</text></g><!--cluster Core Services--><g class="cluster" data-qualified-name="Pulseflow Container Stack.Core Services" data-source-line="13" id="ent0007"><path d="M56.25,403.125 L164.5829,403.125 A6.25,6.25 0 0 1 168.7496,407.2917 L176.0412,435.1762 L348.9583,435.1762 A4.1667,4.1667 0 0 1 353.125,439.3429 L353.125,688.5417 A4.1667,4.1667 0 0 1 348.9583,692.7083 L56.25,692.7083 A4.1667,4.1667 0 0 1 52.0833,688.5417 L52.0833,407.2917 A4.1667,4.1667 0 0 1 56.25,403.125" fill="#8E8C84" style="stroke:#325D88;stroke-width:2.0833;"/><line style="stroke:#325D88;stroke-width:2.0833;" x1="52.0833" x2="176.0412" y1="435.1762" y2="435.1762"/><text fill="#325D88" font-family="'Verdana'" font-size="12.5" font-weight="bold" lengthAdjust="spacing" textLength="99.9996" x="61.4583" y="421.9551">Core Services</text></g><!--entity ext--><g class="entity" data-qualified-name="External Network.ext" data-source-line="6" id="ent0003"><rect fill="#325D88" height="57.0512" rx="4.1667" ry="4.1667" style="stroke:#2D547A;stroke-width:1.0417;" width="182.852" x="72.9167" y="61.4583"/><rect fill="#325D88" height="10.4167" style="stroke:#2D547A;stroke-width:1.0417;" width="15.625" x="234.9353" y="66.6667"/><rect fill="#325D88" height="2.0833" style="stroke:#2D547A;stroke-width:1.0417;" width="4.1667" x="232.852" y="68.75"/><rect fill="#325D88" height="2.0833" style="stroke:#2D547A;stroke-width:1.0417;" width="4.1667" x="232.852" y="72.9167"/><text fill="#FFFFFF" font-family="'Verdana'" font-size="12.5" lengthAdjust="spacing" textLength="130.7686" x="93.75" y="99.0384">External Consumer</text></g><!--entity ui--><g class="entity" data-qualified-name="External Network.ui" data-source-line="7" id="ent0004"><rect fill="#325D88" height="57.0512" rx="4.1667" ry="4.1667" style="stroke:#2D547A;stroke-width:1.0417;" width="167.4674" x="293.2292" y="61.4583"/><rect fill="#325D88" height="10.4167" style="stroke:#2D547A;stroke-width:1.0417;" width="15.625" x="439.8633" y="66.6667"/><rect fill="#325D88" height="2.0833" style="stroke:#2D547A;stroke-width:1.0417;" width="4.1667" x="437.7799" y="68.75"/><rect fill="#325D88" height="2.0833" style="stroke:#2D547A;stroke-width:1.0417;" width="4.1667" x="437.7799" y="72.9167"/><text fill="#FFFFFF" font-family="'Verdana'" font-size="12.5" lengthAdjust="spacing" textLength="115.3841" x="314.0625" y="99.0384">Vue.js Frontend</text></g><!--entity nginx--><g class="entity" data-qualified-name="Pulseflow Container Stack.nginx" data-source-line="11" id="ent0006"><rect fill="#325D88" height="82.5953" rx="4.1667" ry="4.1667" style="stroke:#2D547A;stroke-width:1.0417;" width="152.0829" x="88.5417" y="245.8333"/><rect fill="#325D88" height="10.4167" style="stroke:#2D547A;stroke-width:1.0417;" width="15.625" x="219.7912" y="251.0417"/><rect fill="#325D88" height="2.0833" style="stroke:#2D547A;stroke-width:1.0417;" width="4.1667" x="217.7079" y="253.125"/><rect fill="#325D88" height="2.0833" style="stroke:#2D547A;stroke-width:1.0417;" width="4.1667" x="217.7079" y="257.2917"/><text fill="#FFFFFF" font-family="'Verdana'" font-size="12.5" font-style="italic" lengthAdjust="spacing" textLength="57.1186" x="130.8155" y="283.9841">&#171;Port 80&#187;</text><text fill="#FFFFFF" font-family="'Verdana'" font-size="12.5" lengthAdjust="spacing" textLength="99.9996" x="109.375" y="308.9575">Nginx Gateway</text></g><!--entity api--><g class="entity" data-qualified-name="Pulseflow Container Stack.Core Services.api" data-source-line="14" id="ent0008"><rect fill="#325D88" height="82.5953" rx="4.1667" ry="4.1667" style="stroke:#2D547A;stroke-width:1.0417;" width="167.4674" x="168.2292" y="447.9167"/><rect fill="#325D88" height="10.4167" style="stroke:#2D547A;stroke-width:1.0417;" width="15.625" x="314.8633" y="453.125"/><rect fill="#325D88" height="2.0833" style="stroke:#2D547A;stroke-width:1.0417;" width="4.1667" x="312.7799" y="455.2083"/><rect fill="#325D88" height="2.0833" style="stroke:#2D547A;stroke-width:1.0417;" width="4.1667" x="312.7799" y="459.375"/><text fill="#FFFFFF" font-family="'Verdana'" font-size="12.5" font-style="italic" lengthAdjust="spacing" textLength="72.7432" x="210.383" y="486.0674">&#171;Port 8000&#187;</text><text fill="#FFFFFF" font-family="'Verdana'" font-size="12.5" lengthAdjust="spacing" textLength="115.3841" x="189.0625" y="511.0409">FastAPI Backend</text></g><!--entity db--><g class="entity" data-qualified-name="Pulseflow Container Stack.Core Services.db" data-source-line="15" id="ent0009"><path d="M73.9583,630.2083 C73.9583,619.7917 139.5831,619.7917 139.5831,619.7917 C139.5831,619.7917 205.2079,619.7917 205.2079,630.2083 L205.2079,665.3846 C205.2079,675.8012 139.5831,675.8012 139.5831,675.8012 C139.5831,675.8012 73.9583,675.8012 73.9583,665.3846 L73.9583,630.2083" fill="#325D88" style="stroke:#2D547A;stroke-width:1.0417;"/><path d="M73.9583,630.2083 C73.9583,640.625 139.5831,640.625 139.5831,640.625 C139.5831,640.625 205.2079,640.625 205.2079,630.2083" fill="none" style="stroke:#2D547A;stroke-width:1.0417;"/><text fill="#FFFFFF" font-family="'Verdana'" font-size="12.5" lengthAdjust="spacing" textLength="99.9996" x="89.5833" y="661.5384">DuckDB Engine</text></g><!--entity mydb--><g class="entity" data-qualified-name="Pulseflow Container Stack.Core Services.mydb" data-source-line="16" id="ent0010"><path d="M68.75,471.3542 C68.75,460.9375 99.7595,460.9375 99.7595,460.9375 C99.7595,460.9375 130.7691,460.9375 130.7691,471.3542 L130.7691,506.5304 C130.7691,516.9471 99.7595,516.9471 99.7595,516.9471 C99.7595,516.9471 68.75,516.9471 68.75,506.5304 L68.75,471.3542" fill="#325D88" style="stroke:#2D547A;stroke-width:1.0417;"/><path d="M68.75,471.3542 C68.75,481.7708 99.7595,481.7708 99.7595,481.7708 C99.7595,481.7708 130.7691,481.7708 130.7691,471.3542" fill="none" style="stroke:#2D547A;stroke-width:1.0417;"/><text fill="#FFFFFF" font-family="'Verdana'" font-size="12.5" lengthAdjust="spacing" textLength="30.7691" x="84.375" y="502.6842">MyDB</text></g><!--link ext to nginx--><g class="link" data-entity-1="ent0003" data-entity-2="ent0006" data-link-type="dependency" data-source-line="21" id="lnk11"><path d="M146.8542,118.8854 C141.3958,128.9375 136.0938,140.6458 133.3333,152.0833 C125.7396,183.5104 132.685,213.3511 143.0184,239.9553" fill="none" id="ext-to-nginx" style="stroke:#325D88;stroke-width:3.125;"/><polygon fill="#325D88" points="145.2813,245.7813,145.7709,235.5337,143.3955,240.9263,138.003,238.5509,145.2813,245.7813" style="stroke:#325D88;stroke-width:3.125;"/><text fill="#FFFFFF" font-family="'Verdana'" font-size="12.5" lengthAdjust="spacing" textLength="215.3837" x="139.5833" y="169.8717">HTTP POST/GET (via /api/...)</text></g><!--link ui to nginx--><g class="link" data-entity-1="ent0004" data-entity-2="ent0006" data-link-type="dependency" data-source-line="22" id="lnk12"><path d="M379.3542,118.8854 C379.4792,137.5 376.8021,161.7188 364.5833,179.1667 C335.2396,221.0833 289.9722,245.7508 246.7638,262.0633" fill="none" id="ui-to-nginx" style="stroke:#325D88;stroke-width:3.125;"/><polygon fill="#325D88" points="240.9167,264.2708,251.1591,264.8577,245.7893,262.4313,248.2158,257.0615,240.9167,264.2708" style="stroke:#325D88;stroke-width:3.125;"/><text fill="#FFFFFF" font-family="'Verdana'" font-size="12.5" lengthAdjust="spacing" textLength="215.3837" x="381.25" y="169.8717">HTTP POST/GET (via /api/...)</text></g><!--link nginx to api--><g class="link" data-entity-1="ent0006" data-entity-2="ent0008" data-link-type="dependency" data-source-line="23" id="lnk13"><path d="M182.2917,328.4896 C197.4688,363.1979 216.7232,407.2015 231.9003,441.8785" fill="none" id="nginx-to-api" style="stroke:#325D88;stroke-width:3.125;"/><polygon fill="#325D88" points="234.4063,447.6042,234.4644,437.3451,232.318,442.8328,226.8303,440.6863,234.4063,447.6042" style="stroke:#325D88;stroke-width:3.125;"/><text fill="#FFFFFF" font-family="'Verdana'" font-size="12.5" lengthAdjust="spacing" textLength="184.6146" x="211.4583" y="377.1634">Reverse Proxy (Internal)</text></g><!--link api to db--><g class="link" data-entity-1="ent0008" data-entity-2="ent0009" data-link-type="dependency" data-source-line="24" id="lnk14"><path d="M223.1146,530.4792 C203.0625,558.4167 180.5502,589.7868 162.8939,614.3909" fill="none" id="api-to-db" style="stroke:#325D88;stroke-width:3.125;"/><polygon fill="#325D88" points="159.25,619.4688,168.1011,614.2813,162.2866,615.2372,161.3307,609.4227,159.25,619.4688" style="stroke:#325D88;stroke-width:3.125;"/><text fill="#FFFFFF" font-family="'Verdana'" font-size="12.5" lengthAdjust="spacing" textLength="184.6146" x="205.2083" y="579.2467">SQL Queries / In-process</text></g><?plantuml-src ZL79JiCm4BtxAuPSQ0zDAawegYhHbKfGKX9nGHoSP6XD4ZloqZH2_NViT04X3lWuRvdtnbTwYoM2eZnJMd0aAcUyefAMa8goiXEk8zqK2AOiRdwW2KtpZHI6PnDH20drbcaafB9Zka7mPdkDajC2LgXh8NCFFWdOzte19e8hKw9y0we0z_e8lnZqFnJCfU0QUTQ2Xf438LnarZSqXSBtGjHEhodZA27ITkjvmIKsUAiDutjOK8qrRJpdnDl9S1WAgU6sFngHLdD9FH4I8KAvOocgi-ClrpbL-YvSmjYARCBMbrRisxNlVC_2Z6gQK6MzfoRDfsEOkGpOghBa3zfZCnstQDcSy8DhVmrpMreHUoZezKQd9WEuZ-CGmgSe3XQp63exHY6mQGBVzxl4iFzpZoH7TsK6y8mxb3PGACM-WSwI7x-jInpiQ5bYMT7w0TO69KC50InvhvB2dawHBm00?></g></svg>